# xmcd
#
# Track frame offsets:
#      150
#      12058
#      33036
#      50756
#      74213
#      97830
#      113378
#      127842
#      146287
#      171275
# 
# Disc length: 2591 seconds
#
# Revision: 8
# Processed by: cddbd v1.4PL0 Copyright (c) Steve Scherf et al.
#
# Submitted via: FreeRIP 1.20
#
DISCID=780a1d0a
DTITLE=Sober - 好極了
DYEAR=1997
DGENRE=Rock
TTITLE0=01好極了
TTITLE1=02 記憶散落了沒有聲音
TTITLE2=03 永遠的一天(Lucia)
TTITLE3=04 十月
TTITLE4=05 黑夜在跳動
TTITLE5=06 嘿我愛你
TTITLE6=07 收音機人
TTITLE7=08 旋轉的房子
TTITLE8=09 口香糖生活
TTITLE9=10 走著入睡
EXTD=YEAR: 2000
EXTT0=
EXTT1=
EXTT2=
EXTT3=
EXTT4=
EXTT5=
EXTT6=
EXTT7=
EXTT8=
EXTT9=
PLAYORDER=
